inDegrees=yes
name=ik_S40_A05_T01
DataType=double
version=3
OpenSimVersion=4.3-2021-08-27-4bc7ad9
endheader
time	pelvis_tilt	pelvis_list	pelvis_rotation	pelvis_tx	pelvis_ty	pelvis_tz	hip_flexion_r	hip_adduction_r	hip_rotation_r	knee_angle_r	knee_angle_r_beta	ankle_angle_r	subtalar_angle_r	mtp_angle_r	hip_flexion_l	hip_adduction_l	hip_rotation_l	knee_angle_l	knee_angle_l_beta	ankle_angle_l	subtalar_angle_l	mtp_angle_l	lumbar_extension	lumbar_bending	lumbar_rotation	arm_flex_r	arm_add_r	arm_rot_r	elbow_flex_r	pro_sup_r	wrist_flex_r	wrist_dev_r	arm_flex_l	arm_add_l	arm_rot_l	elbow_flex_l	pro_sup_l	wrist_flex_l	wrist_dev_l
18.2999999999997	-5.946140715544108	-2.1641626447675	35.48716070537238	0	0.9399999999999999	0	38.67669406152633	-9.921733730289638	-9.702322604968298	44.66367159350031	0.7795281253360428	0	0	0	38.67669406152633	-9.921733730289638	-9.702322604968298	44.66367159350031	0.7795281253360428	0	0	0	-4.074949620069964	-2.208772995436472	10.00256432370164	60.82559331231914	-7.230463324997737	8.931733536646274	44.93766639501715	109.2087209360124	0	0	25.67772681595125	-2.046431918976346	-1.81140067793867	42.61020324954026	136.2722737468472	0	0
18.3199999999997	-5.953681536230133	-2.137781254173559	35.08247790585768	0	0.9399999999999999	0	38.68045716847706	-9.921894979414011	-9.702716294698323	44.66787168925833	0.7796014308359194	0	0	0	38.68045716847706	-9.921894979414011	-9.702716294698323	44.66787168925833	0.7796014308359194	0	0	0	-4.057088154439885	-2.216406029327372	10.3794301505028	58.94531421248112	-7.887159839912536	7.003592530902817	49.6622896953239	111.5607261780501	0	0	25.61637595804604	-2.038259651254508	-1.807841512431993	42.61951074810715	136.2267156089023	0	0
18.3399999999997	-5.971170605116857	-2.117291889615083	35.17445576035061	0	0.9399999999999999	0	38.6839480041876	-9.922042089009143	-9.703077577550564	44.67182465549731	0.7796704231120096	0	0	0	38.6839480041876	-9.922042089009143	-9.703077577550564	44.67182465549731	0.7796704231120096	0	0	0	-4.064267251446062	-2.172511507064983	10.21319990830826	58.87627031773737	-7.684165748998339	7.025018705554841	52.2387046722075	113.2922005151804	0	0	25.61697798309172	-2.015680897682721	-1.893677081754021	42.6131152554453	136.1774674663426	0	0
18.3599999999997	-5.976490314567064	-2.10963776402463	35.13024186040742	0	0.9399999999999999	0	38.69162131829601	-9.92232481680893	-9.703812639624221	44.68060926623541	0.7798237434928956	0	0	0	38.69162131829601	-9.92232481680893	-9.703812639624221	44.68060926623541	0.7798237434928956	0	0	0	-4.066380947966556	-2.158744825760177	10.1935054209644	58.89901378097559	-7.650058114742031	7.058745017458183	52.25497494707365	113.2906149352617	0	0	25.58188958947881	-2.035318523626594	-1.979204822657354	42.62859811152315	136.1315453773801	0	0
18.3799999999997	-5.98767469054475	-2.09756183933067	35.35885063516618	0	0.9399999999999999	0	38.69618484257179	-9.92251750675597	-9.704285831417957	44.68575144059375	0.7799134913661602	0	0	0	38.69618484257179	-9.92251750675597	-9.704285831417957	44.68575144059375	0.7799134913661602	0	0	0	-4.074597380539839	-2.118077951452214	9.871860335457427	58.76506568981586	-7.254473620901512	7.057286504125148	56.84858876213358	117.83084493551	0	0	25.57999092265601	-2.062730046783216	-2.188917641667843	42.70538522744528	136.100607400707	0	0
18.3999999999997	-5.989758300201107	-2.051173032503875	34.18486863488774	0	0.9399999999999999	0	38.70827544958043	-9.923028594066899	-9.705542269060812	44.69926311381132	0.7801493145512604	0	0	0	38.70827544958043	-9.923028594066899	-9.705542269060812	44.69926311381132	0.7801493145512604	0	0	0	-4.051253206594879	-2.213183971671452	10.95026106779989	47.78174075575922	-10.17512612235933	1.954623062544921	68.62954060280506	119.890658646824	0	0	25.50178852045883	-2.116733678766547	-2.655446442182676	42.76965999950824	136.3623983981811	0	0
18.4199999999997	-5.98906601456173	-2.0402537465993	33.81121027136172	0	0.9399999999999999	0	38.71218551268642	-9.923193426483737	-9.705947708127351	44.70365248803738	0.7802259235836073	0	0	0	38.71218551268642	-9.923193426483737	-9.705947708127351	44.70365248803738	0.7802259235836073	0	0	0	-4.040101078292434	-2.228283383643697	11.22629022959259	44.0380653230457	-10.41764872770975	1.352273568655667	75.06977656479847	125.7032958166293	0	0	25.43995581045622	-2.099996690339983	-2.931910707854525	42.87825047625645	136.3029549914688	0	0
18.4399999999997	-5.997038877035179	-2.032761715023863	33.52353571443208	0	0.9399999999999999	0	38.71523129564505	-9.923321880699232	-9.706263688940586	44.70706663215708	0.7802855116396337	0	0	0	38.71523129564505	-9.923321880699232	-9.706263688940586	44.70706663215708	0.7802855116396337	0	0	0	-4.041661061828479	-2.226309866333203	11.41257123096048	40.1910915578656	-10.57509668819294	0.5579496660734419	79.37944304944912	129.3888961542742	0	0	25.37963819013169	-2.064223079376757	-3.30326918862363	42.98665284201124	136.4162198791695	0	0
18.4599999999997	-6.004711425419371	-2.027882663262093	33.11765151095803	0	0.9399999999999999	0	38.71801371756442	-9.923439143044513	-9.706552267029233	44.71018465593797	0.7803399314207655	0	0	0	38.71801371756442	-9.923439143044513	-9.706552267029233	44.71018465593797	0.7803399314207655	0	0	0	-4.040612346517547	-2.25006578521746	11.76354260212523	36.17154041283165	-10.64244111617398	-1.110365159616276	83.03716281983883	133.2154604062177	0	0	25.34108379549249	-1.988543232469226	-3.676046819885124	43.00365611760861	136.7195418048246	0	0
18.47999999999969	-6.048414511912843	-2.045041562312188	33.06403518776413	0	0.9399999999999999	0	38.72183560755076	-9.923599481642718	-9.706947532159832	44.714482125908	0.7804149364212483	0	0	0	38.72183560755076	-9.923599481642718	-9.706947532159832	44.714482125908	0.7804149364212483	0	0	0	-4.090948609244169	-2.227779813430053	11.63957952417951	36.29877093510798	-10.58362533174254	-0.7427317382344532	81.96471713625859	136.2690342650557	0	0	25.36286339634735	-1.951234518609296	-4.233573395326683	43.10885109806288	136.9381478440274	0	0
18.49999999999969	-6.093949281226901	-2.049740649021014	32.99795534956556	0	0.9399999999999999	0	38.7236701031921	-9.923675626781913	-9.70713596178445	44.71656346450379	0.7804512626325937	0	0	0	38.7236701031921	-9.923675626781913	-9.70713596178445	44.71656346450379	0.7804512626325937	0	0	0	-4.13743581094243	-2.190009767984763	11.46440571241302	36.4090470953658	-10.50840686043404	-0.5099684153314729	81.98746703625284	136.2696661382473	0	0	25.35775420682047	-1.917827377464579	-4.879267810633938	43.25091475949145	137.1123922079284	0	0
